<?xml version="1.0" encoding="UTF-8"?>
<svg id="Capa_1" data-name="Capa 1" xmlns="http://www.w3.org/2000/svg" viewBox="0 0 1032.41 833.23">
  <defs>
    <style>
      .cls-1 {
        fill: #fff;
        stroke-width: 0px;
      }
    </style>
  </defs>
  <path class="cls-1" d="m516.2,0C366.24,0,244.68,121.57,244.68,271.53s121.57,271.53,271.53,271.53,271.53-121.57,271.53-271.53S666.17,0,516.2,0Zm137.88,350.72l-137.88,79.2-137.88-79.2v-158.39l137.88-79.2,137.88,79.2v158.39Z"/>
  <g>
    <path class="cls-1" d="m69.9,730.25c-12.27,0-23.07-2.95-32.39-8.85-9.32-5.9-16.58-14.72-21.79-26.45-5.21-11.73-7.81-26.37-7.81-43.92s2.6-31.42,7.81-42.99c5.2-11.57,12.47-20.27,21.79-26.1,9.32-5.83,20.11-8.74,32.39-8.74s23.07,2.91,32.39,8.74c9.32,5.83,16.58,14.53,21.79,26.1,5.2,11.57,7.81,25.9,7.81,42.99s-2.6,32.19-7.81,43.92c-5.21,11.73-12.47,20.54-21.79,26.45-9.32,5.9-20.12,8.85-32.39,8.85Zm0-34.48c6.52,0,11.65-3.69,15.38-11.07,3.73-7.38,5.59-18.6,5.59-33.67s-1.86-25.28-5.59-32.5c-3.73-7.22-8.85-10.83-15.38-10.83s-11.65,3.61-15.38,10.83c-3.73,7.22-5.59,18.06-5.59,32.5s1.86,26.29,5.59,33.67c3.73,7.38,8.85,11.07,15.38,11.07Z"/>
    <path class="cls-1" d="m227.87,730.25c-12.9,0-24.74-2.83-35.53-8.5-10.8-5.67-19.42-14.25-25.86-25.75-6.45-11.49-9.67-25.86-9.67-43.1s3.22-31.57,9.67-43.46c6.44-11.88,15.06-20.89,25.86-27.03,10.79-6.13,22.72-9.2,35.77-9.2,10.25,0,19.11,1.98,26.56,5.94s13.67,8.5,18.64,13.63l-21.9,24.7c-3.11-3.11-6.41-5.51-9.9-7.22-3.5-1.71-7.96-2.56-13.4-2.56-8.24,0-15.3,3.84-21.2,11.53-5.91,7.69-8.85,18.45-8.85,32.27s2.64,25.05,7.92,32.74c5.28,7.69,13.36,11.53,24.23,11.53,1.86,0,3.76-.23,5.71-.7,1.94-.47,3.46-1.17,4.54-2.1v-20.97h-18.87v-32.62h54.52v72.23c-5.13,4.66-12.04,8.93-20.74,12.81-8.7,3.88-17.86,5.83-27.49,5.83Z"/>
    <path class="cls-1" d="m294.97,727.45l45.67-151.45h48.46l45.67,151.45h-42.41l-7.46-32.15h-41.47l-7.46,32.15h-41.01Zm58.02-73.63l-2.33,10.49h27.03l-2.33-10.49c-1.55-7.3-3.34-15.22-5.36-23.77-2.02-8.54-3.88-16.62-5.59-24.23h-.93c-1.55,7.61-3.26,15.69-5.13,24.23-1.86,8.54-3.65,16.47-5.36,23.77Z"/>
    <path class="cls-1" d="m457.37,727.45v-151.45h43.57c14.45,0,27.22,2.53,38.33,7.57,11.1,5.05,19.8,13.09,26.1,24.12,6.29,11.03,9.44,25.48,9.44,43.34s-3.11,32.43-9.32,43.69c-6.21,11.26-14.72,19.54-25.51,24.81-10.8,5.28-23.03,7.92-36.7,7.92h-45.9Zm40.08-32.15h1.4c6.52,0,12.43-1.24,17.71-3.73,5.28-2.48,9.47-6.91,12.58-13.28,3.11-6.37,4.66-15.45,4.66-27.26s-1.55-20.77-4.66-26.91c-3.11-6.13-7.3-10.33-12.58-12.58-5.28-2.25-11.18-3.38-17.71-3.38h-1.4v87.14Z"/>
    <path class="cls-1" d="m609.52,727.45v-151.45h102.99v33.55h-62.91v23.77h53.59v33.55h-53.59v27.03h65.24v33.55h-105.32Z"/>
    <path class="cls-1" d="m783.1,727.45l-44.74-151.45h42.41l15.84,66.17c2.17,8.08,4.08,16.04,5.71,23.88,1.63,7.85,3.46,15.88,5.48,24.12h.93c2.17-8.23,4.08-16.27,5.71-24.12,1.63-7.84,3.46-15.8,5.48-23.88l15.38-66.17h41.01l-44.74,151.45h-48.46Z"/>
    <path class="cls-1" d="m953.89,730.25c-9.94,0-20.08-1.79-30.41-5.36-10.33-3.57-19.77-9.01-28.31-16.31l22.83-27.49c5.75,4.35,11.92,7.89,18.52,10.6,6.6,2.72,13.32,4.08,20.15,4.08,6.06,0,10.37-.85,12.93-2.56,2.56-1.71,3.84-3.8,3.84-6.29,0-4.5-1.9-7.65-5.71-9.44-3.81-1.78-9.2-4.15-16.19-7.11l-18.87-7.92c-8.7-3.26-16.19-8.39-22.48-15.38s-9.44-15.92-9.44-26.79c0-8.7,2.41-16.58,7.22-23.65,4.81-7.07,11.57-12.74,20.27-17.01,8.7-4.27,18.79-6.41,30.29-6.41,9.01,0,18.06,1.67,27.14,5.01,9.09,3.34,17.28,8.43,24.58,15.26l-20.04,25.16c-5.44-3.57-10.64-6.29-15.61-8.16-4.97-1.86-11.11-2.8-18.41-2.8-4.35,0-7.92.82-10.72,2.45s-4.19,4.23-4.19,7.81,2.06,6.1,6.17,8.04c4.11,1.94,9.98,4.31,17.59,7.11l17.47,7.22c10.1,3.73,17.94,8.93,23.53,15.61,5.59,6.68,8.39,15.3,8.39,25.86,0,8.54-2.33,16.51-6.99,23.88-4.66,7.38-11.5,13.32-20.5,17.82-9.01,4.5-20.04,6.76-33.09,6.76Z"/>
  </g>
</svg>